<svg width="293" height="56" viewBox="0 0 293 56" fill="none" xmlns="http://www.w3.org/2000/svg">
<path d="M278.504 34.6361C277.888 34.6361 277.538 34.3002 277.454 33.6285L275.229 1.09156C275.145 0.363854 275.495 0 276.278 0H291.938C292.722 0 293.072 0.363854 292.988 1.09156L290.763 33.6285C290.679 34.3002 290.329 34.6361 289.713 34.6361H278.504ZM277.412 55.6276C276.712 55.6276 276.362 55.2498 276.362 54.4941V41.1435C276.362 40.3878 276.712 40.0099 277.412 40.0099H290.847C291.546 40.0099 291.896 40.3878 291.896 41.1435V54.4941C291.896 55.2498 291.546 55.6276 290.847 55.6276H277.412Z" fill="#CF49FF"/>
<path d="M252.258 55.9636C251.978 55.9636 251.67 55.9216 251.334 55.8376C251.026 55.7536 250.732 55.6837 250.452 55.6277L242.979 53.7804L234.415 50.9256C233.575 50.6457 233.155 49.834 233.155 48.4906V20.5718C233.155 19.9 233.393 19.3403 233.869 18.8924L242.266 10.4958C242.742 10.02 243.301 9.7821 243.945 9.7821H257.38C258.023 9.7821 258.583 10.02 259.059 10.4958L267.456 18.8924C267.931 19.3403 268.169 19.9 268.169 20.5718V37.7849H245.624L245.33 43.3686L251.292 45.3418L261.998 46.0975C262.474 46.1815 262.712 46.5034 262.712 47.0631V54.914C262.712 55.6137 262.362 55.9636 261.662 55.9636H252.258ZM250.578 31.1935H251.376C252.748 31.1935 253.839 30.6757 254.651 29.6401C255.49 28.6045 255.91 27.2051 255.91 25.4418V24.6022C255.91 22.8668 255.49 21.4814 254.651 20.4458C253.839 19.4102 252.748 18.8924 251.376 18.8924H250.536C249.193 18.8924 248.115 19.4102 247.304 20.4458C246.52 21.4814 246.128 22.8668 246.128 24.6022V25.4418C246.128 27.2051 246.52 28.6045 247.304 29.6401C248.115 30.6757 249.207 31.1935 250.578 31.1935Z" fill="#9249FF"/>
<path d="M167.014 55.9635C166.314 55.9635 165.965 55.6137 165.965 54.9139V9.36224C165.965 8.7185 166.202 8.15872 166.678 7.68291L173.647 0.671728C174.123 0.223907 174.683 0 175.327 0H184.941C185.585 0 186.144 0.223907 186.62 0.671728L193.673 7.76688H195.647L202.7 0.671728C203.176 0.223907 203.735 0 204.379 0H213.951C214.623 0 215.183 0.223907 215.631 0.671728L222.642 7.68291C223.118 8.15872 223.355 8.7185 223.355 9.36224V54.9139C223.355 55.6137 223.006 55.9635 222.306 55.9635H210.383C209.683 55.9635 209.333 55.6137 209.333 54.9139V11.1675H201.65V54.9139C201.65 55.6137 201.3 55.9635 200.601 55.9635H188.719C188.02 55.9635 187.67 55.6137 187.67 54.9139V11.1675H179.945V54.9139C179.945 55.6137 179.595 55.9635 178.895 55.9635H167.014Z" fill="#4986FF"/>
<path d="M106.452 55.9635C105.752 55.9635 105.402 55.6137 105.402 54.9139V1.04958C105.402 0.349857 105.752 0 106.452 0H132.061C132.733 0 133.293 0.223907 133.741 0.671728L142.137 9.06835C142.613 9.54416 142.851 10.1039 142.851 10.7477V45.1739C142.851 45.8456 142.613 46.4054 142.137 46.8532L133.741 55.2498C133.293 55.7256 132.733 55.9635 132.061 55.9635H106.452ZM119.424 44.754H127.107C128.283 44.754 128.871 43.9703 128.871 42.403V13.5606C128.871 11.9652 128.283 11.1675 127.107 11.1675H119.424V44.754Z" fill="#62FF49"/>
<path d="M62.6303 55.9636C61.9305 55.9636 61.5807 55.6137 61.5807 54.914V10.8317C61.5807 10.132 61.9305 9.7821 62.6303 9.7821H85.0912C85.735 9.7821 86.2948 10.02 86.7706 10.4958L95.1672 18.8924C95.643 19.3403 95.8809 19.9 95.8809 20.5718V54.914C95.8809 55.6137 95.531 55.9636 94.8313 55.9636H83.6218C82.9221 55.9636 82.5723 55.6137 82.5723 54.914V22.2511C82.5723 20.9356 81.9145 20.2779 80.599 20.2779H74.8893V54.914C74.8893 55.6137 74.5395 55.9636 73.8398 55.9636H62.6303Z" fill="#FFBF49"/>
<path d="M38.6048 55.9635C37.9051 55.9635 37.5552 55.6137 37.5552 54.9139V1.04958C37.5552 0.349857 37.9051 0 38.6048 0H50.486C51.1858 0 51.5356 0.349857 51.5356 1.04958V54.9139C51.5356 55.6137 51.1858 55.9635 50.486 55.9635H38.6048Z" fill="#FF8349"/>
<path d="M1.04958 55.9635C0.34986 55.9635 0 55.6137 0 54.9139V1.04958C0 0.349857 0.34986 0 1.04958 0H29.808C30.5077 0 30.8576 0.349857 30.8576 1.04958V10.1179C30.8576 10.8177 30.5077 11.1675 29.808 11.1675H13.9804V25.1899H27.7089C28.4086 25.1899 28.7585 25.5397 28.7585 26.2395V35.3078C28.7585 36.0075 28.4086 36.3574 27.7089 36.3574H13.9804V54.9139C13.9804 55.6137 13.6305 55.9635 12.9308 55.9635H1.04958Z" fill="#FF4949"/>
</svg>
